<svg xmlns="http://www.w3.org/2000/svg" viewBox="0 0 64 64">
  <defs>
    <linearGradient id="sun" x1="0" y1="0" x2="1" y2="1">
      <stop offset="0%" stop-color="#ffe08a"/>
      <stop offset="100%" stop-color="#f59e0b"/>
    </linearGradient>
    <linearGradient id="panel" x1="0" y1="0" x2="0" y2="1">
      <stop offset="0%" stop-color="#7dd3fc"/>
      <stop offset="100%" stop-color="#1d4ed8"/>
    </linearGradient>
  </defs>
  <rect width="64" height="64" rx="16" fill="#fff9ef"/>
  <circle cx="47" cy="18" r="9" fill="url(#sun)"/>
  <g stroke="#f59e0b" stroke-linecap="round" stroke-width="2">
    <line x1="47" y1="4" x2="47" y2="8"/>
    <line x1="47" y1="28" x2="47" y2="32"/>
    <line x1="33" y1="18" x2="37" y2="18"/>
    <line x1="57" y1="18" x2="61" y2="18"/>
    <line x1="37.5" y1="8.5" x2="40.5" y2="11.5"/>
    <line x1="53.5" y1="24.5" x2="56.5" y2="27.5"/>
    <line x1="37.5" y1="27.5" x2="40.5" y2="24.5"/>
    <line x1="53.5" y1="11.5" x2="56.5" y2="8.5"/>
  </g>
  <g transform="translate(11 29) rotate(-10 21 11)">
    <rect x="0" y="0" width="42" height="22" rx="4" fill="url(#panel)" stroke="#1e3a8a" stroke-width="2"/>
    <g stroke="rgba(255,255,255,0.75)" stroke-width="1.5">
      <line x1="10.5" y1="2" x2="10.5" y2="20"/>
      <line x1="21" y1="2" x2="21" y2="20"/>
      <line x1="31.5" y1="2" x2="31.5" y2="20"/>
      <line x1="2" y1="7.5" x2="40" y2="7.5"/>
      <line x1="2" y1="14.5" x2="40" y2="14.5"/>
    </g>
  </g>
</svg>
